<?xml version="1.0" encoding="UTF-8" standalone="no"?>
<svg
   xmlns:dc="http://purl.org/dc/elements/1.1/"
   xmlns:cc="http://creativecommons.org/ns#"
   xmlns:rdf="http://www.w3.org/1999/02/22-rdf-syntax-ns#"
   xmlns:svg="http://www.w3.org/2000/svg"
   xmlns="http://www.w3.org/2000/svg"
   xmlns:sodipodi="http://sodipodi.sourceforge.net/DTD/sodipodi-0.dtd"
   xmlns:inkscape="http://www.inkscape.org/namespaces/inkscape"
   height="512pt"
   viewBox="0 -94 512 512"
   width="512pt"
   version="1.1"
   id="svg16"
   sodipodi:docname="048-switch-1.svg"
   inkscape:version="1.0.2 (e86c870879, 2021-01-15)">
  <metadata
     id="metadata22">
    <rdf:RDF>
      <cc:Work
         rdf:about="">
        <dc:format>image/svg+xml</dc:format>
        <dc:type
           rdf:resource="http://purl.org/dc/dcmitype/StillImage" />
        <dc:title></dc:title>
      </cc:Work>
    </rdf:RDF>
  </metadata>
  <defs
     id="defs20" />
  <sodipodi:namedview
     pagecolor="#ffffff"
     bordercolor="#666666"
     borderopacity="1"
     objecttolerance="10"
     gridtolerance="10"
     guidetolerance="10"
     inkscape:pageopacity="0"
     inkscape:pageshadow="2"
     inkscape:window-width="1920"
     inkscape:window-height="1013"
     id="namedview18"
     showgrid="false"
     inkscape:zoom="0.61669922"
     inkscape:cx="159.94456"
     inkscape:cy="253.04717"
     inkscape:window-x="-9"
     inkscape:window-y="-9"
     inkscape:window-maximized="1"
     inkscape:current-layer="svg16" />
  <path
     d="m162.21875 316.941406h187.5625v-309.441406h-187.5625c-85.449219 0-154.71875 69.269531-154.71875 154.722656 0 85.449219 69.269531 154.71875 154.71875 154.71875zm0 0"
     fill="#b2e59c"
     id="path2"
     style="fill:#ff929f;fill-opacity:1" />
  <path
     d="m162.21875 316.941406h187.5625v-309.441406h-162.976562c-39.863282 41.933594-61.746094 96.644531-61.746094 154.722656 0 10.664063 2.167968 26.207032 4.335937 39.085938 3.722657 22.117187-.53125 44.90625-12.214843 64.046875-6.851563 11.226562-16.351563 22.945312-29.332032 32.570312 22.066406 12.121094 47.417969 19.015625 74.371094 19.015625zm0 0"
     fill="#9ad880"
     id="path4"
     style="fill:#ffa5b5;fill-opacity:1" />
  <path
     d="m504.5 162.222656c0 85.449219-69.269531 154.71875-154.71875 154.71875-85.453125 0-154.722656-69.269531-154.722656-154.71875 0-85.453125 69.269531-154.722656 154.722656-154.722656 85.449219 0 154.71875 69.269531 154.71875 154.722656zm0 0"
     fill="#ccf8ff"
     id="path6" />
  <path
     d="m422.9375 152.070312v12.449219c0 4.140625 3.355469 7.5 7.5 7.5 4.140625 0 7.5-3.359375 7.5-7.5v-12.449219c0-4.144531-3.359375-7.5-7.5-7.5-4.144531 0-7.5 3.355469-7.5 7.5zm0 0"
     id="path8" />
  <path
     d="m261.621094 152.070312v12.449219c0 4.140625 3.359375 7.5 7.5 7.5 4.144531 0 7.5-3.359375 7.5-7.5v-12.449219c0-4.144531-3.355469-7.5-7.5-7.5-4.140625 0-7.5 3.355469-7.5 7.5zm0 0"
     id="path10" />
  <path
     d="m 368.10156,178.30005 c -10.78906,-8.36718 -25.85547,-8.36718 -36.64062,0 -3.27344,2.53907 -7.98828,1.94532 -10.52344,-1.32812 -2.53906,-3.27344 -1.94531,-7.98438 1.32812,-10.52344 8.10157,-6.28515 17.8086,-9.42578 27.51563,-9.42578 9.70703,0 19.41406,3.14063 27.51172,9.42578 3.27344,2.53906 3.86719,7.25 1.32812,10.52344 -2.53515,3.27344 -7.25,3.86719 -10.51953,1.32812 z m 0,0"
     id="path12" />
  <path
     d="m477.808594 62.585938c-2.546875-3.265626-7.261719-3.851563-10.527344-1.304688s-3.851562 7.257812-1.304688 10.527344c20.296876 26.046875 31.023438 57.308594 31.023438 90.414062 0 81.175782-66.042969 147.21875-147.222656 147.21875-81.175782 0-147.21875-66.042968-147.21875-147.21875 0-81.179687 66.042968-147.222656 147.21875-147.222656 34.132812 0 67.398437 11.945312 93.667968 33.636719 3.195313 2.636719 7.921876 2.183593 10.558594-1.007813 2.640625-3.195312 2.1875-7.925781-1.007812-10.5625-28.953125-23.902344-65.609375-37.066406-103.21875-37.066406h-187.558594c-89.449219 0-162.21875 72.773438-162.21875 162.222656 0 89.449219 72.769531 162.21875 162.21875 162.21875h10.816406c4.144532 0 7.5-3.355468 7.5-7.5 0-4.140625-3.355468-7.5-7.5-7.5h-10.816406c-81.175781 0-147.21875-66.042968-147.21875-147.21875 0-81.179687 66.042969-147.222656 147.21875-147.222656h119.476562c-55.53125 25.785156-94.136718 82.074219-94.136718 147.222656 0 65.144532 38.605468 121.433594 94.136718 147.21875h-74.554687c-4.144531 0-7.5 3.359375-7.5 7.5 0 4.144532 3.355469 7.5 7.5 7.5h142.636719c89.449218 0 162.222656-72.769531 162.222656-162.21875 0-36.476562-11.824219-70.929687-34.191406-99.636718zm0 0"
     id="path14" />
</svg>
