<?xml version="1.0"?>
<svg xmlns="http://www.w3.org/2000/svg" xmlns:xlink="http://www.w3.org/1999/xlink" xmlns:svgjs="http://svgjs.com/svgjs" version="1.1" width="512" height="512" x="0" y="0" viewBox="0 0 60 44" style="enable-background:new 0 0 512 512" xml:space="preserve" class=""><g><g xmlns="http://www.w3.org/2000/svg" id="003---Right-Arrow" fill="none"><g id="Icons" transform="translate(1 1)"><path id="Shape" d="m57.24 21.72-21.24 20.28-2.45-1.48-2.06-1.23c-.307047-.1767529-.4944939-.5057412-.49-.86v-8.79l-4 .36-22 2-.52-.32-3.99-2.39c-.30704704-.1767529-.4944939-.5057412-.49-.86v-14.86c-.0044939-.3542588.18295296-.6832471.49-.86l3.99-2.39.52-.32 22 2 4 .36v-8.79c-.0044939-.35425876.182953-.68324713.49-.86l2.06-1.23 2.45-1.48 21.24 20.28c.1955519.1884832.3060259.4484002.3060259.72s-.110474.5315168-.3060259.72z" fill="#d9e3ff" data-original="#e8edfc" style="" class=""/><path id="Shape" d="m57.24 20.28-21.24-20.28-1.837 1.11 20.077 19.17c.1955519.1884832.3060259.4484002.3060259.72s-.110474.5315168-.3060259.72l-20.077 19.17 1.837 1.11 21.24-20.28c.1955519-.1884832.3060259-.4484002.3060259-.72s-.110474-.5315168-.3060259-.72z" fill="#abebf4" data-original="#cad9fc" style="" class=""/><g fill="#a4c2f7"><path id="Shape" d="m36.0000269 0-.0000269 11.72c.0020715.2810504-.115654.5496813-.3237065.7386464s-.486738.2803774-.7662935.2513536l-3.91-.35v-8.79c-.0044939-.35425876.182953-.68324713.49-.86z" fill="#8ed7e8" data-original="#a4c2f7" style="" class=""/><path id="Shape" d="m36 30.28.0000269 11.72-4.5100269-2.71c-.307047-.1767529-.4944939-.5057412-.49-.86v-8.79l3.91-.35c.2795555-.0290238.558241.0623885.7662935.2513536s.325778.457596.3237065.7386464z" fill="#8ed7e8" data-original="#a4c2f7" style="" class=""/><path id="Shape" d="m5 10v22l-4.51-2.71c-.30704704-.1767529-.4944939-.5057412-.49-.86v-14.86c-.0044939-.3542588.18295296-.6832471.49-.86z" fill="#8ed7e8" data-original="#a4c2f7" style="" class=""/></g></g><path id="Shape" d="m.49 19.29 4.51 2.71 2.606-.237-4.116-2.473c-.30704704-.1767529-.4944939-.5057412-.49-.86v-14.86c-.0044939-.35425876.18295296-.68324713.49-.86l4.116-2.473-2.606-.237-4.51 2.71c-.30704704.17675287-.4944939.50574124-.49.86v14.86c-.0044939.3542588.18295296.6832471.49.86z" fill="" transform="translate(1 11)"/><path id="Rectangle-path" d="m0 14.566h2v8h-2z" fill=""/><g fill="#428dff"><path id="Shape" d="m1.02 19.566c-.55228475 0-1-.4477153-1-1s.44771525-1 1-1 1 .4477153 1 1-.44771525 1-1 1z" fill="#000000" data-original="#428dff" style="" class=""/><path id="Shape" d="m.971 31.149c4.842 2.905 4.661 2.883 5.119 2.851l24.91-2.264v7.7c.0021653.701955.3701979 1.3519816.971 1.715l4.514 2.708c.3848702.2291176.8751492.1743698 1.2-.134l21.248-20.278c.3952272-.3773778.6188274-.90004.6188274-1.4465s-.2236002-1.0691222-.6188274-1.4465l-21.243-20.277c-.3248508-.30836982-.8151298-.36311764-1.2-.134l-4.52 2.709c-.6002603.36293763-.9678941 1.01255028-.97 1.714v7.7c-27.255-2.475-25.113-2.366-25.515-2.123l-4.515 2.709c-1.259.756-1.324 2.714.03 2.714.55228475 0 1-.4477153 1-1l3-1.8v18.468c-3.967-2.38-2.771-1.685-3-1.8v-6.868c0-.5522847-.44771525-1-1-1s-1 .4477153-1 1v6.868c.00216533.701955.37019787 1.3519816.971 1.715zm32.029.405 3-.272v9.952l-3-1.8zm5 9.109v-9.381c-.0002227-.5617704-.2366973-1.0975469-.6515896-1.4762954s-.9699452-.5655449-1.5294104-.5147046l-28.819 2.614v-19.805l28.819 2.614c.5603327.0509203 1.116197-.136535 1.5312585-.5163896.4150616-.3798546.6509252-.91697.6497415-1.4796104v-9.381l19.552 18.663zm-5-36.1 3-1.8v9.951l-3-.272z" fill="#000000" data-original="#428dff" style="" class=""/><path id="Shape" d="m35.037 16.926-16-.592c-.2664918-.0127373-.5268442.0826244-.7220621.2644763s-.3087743.4347988-.3149379.7015237c-.0099966.2652654.0858869.5236209.2665223.7181369.1806355.1945161.4311989.3092296.6964777.3188631l16 .592c.3572656.0132188.6944448-.1651654.8845254-.4679571.1900806-.3027916.204185-.6839895.037-1s-.4902598-.5188241-.8475254-.5320429z" fill="#000000" data-original="#428dff" style="" class=""/><path id="Shape" d="m15.037 16.186-5-.186c-.26656515-.0149956-.52774532.0791928-.72338465.2608714-.19563933.1816785-.30887108.4351841-.31361535.7021286-.00999665.2652654.08588688.5236209.26652233.7181369.18063546.1945161.43119884.3092296.69647767.3188631l5 .185c.5522847.0204345 1.0165655-.4107153 1.037-.963s-.4107153-1.0165655-.963-1.037z" fill="#000000" data-original="#428dff" style="" class=""/></g></g></g></svg>
