<?xml version="1.0" encoding="UTF-8" standalone="no"?>
<svg
   xmlns:dc="http://purl.org/dc/elements/1.1/"
   xmlns:cc="http://creativecommons.org/ns#"
   xmlns:rdf="http://www.w3.org/1999/02/22-rdf-syntax-ns#"
   xmlns:svg="http://www.w3.org/2000/svg"
   xmlns="http://www.w3.org/2000/svg"
   xmlns:sodipodi="http://sodipodi.sourceforge.net/DTD/sodipodi-0.dtd"
   xmlns:inkscape="http://www.inkscape.org/namespaces/inkscape"
   width="210mm"
   height="297mm"
   viewBox="0 0 210 297"
   version="1.1"
   id="svg8"
   inkscape:version="1.0.2 (e86c870879, 2021-01-15)"
   sodipodi:docname="cloud_2.svg"
   inkscape:export-filename="D:\Projects\React-Native\TicTacToe\assets\background\cloud_2_128x70.png"
   inkscape:export-xdpi="43.511139"
   inkscape:export-ydpi="43.511139">
  <defs
     id="defs2" />
  <sodipodi:namedview
     id="base"
     pagecolor="#ffffff"
     bordercolor="#666666"
     borderopacity="1.0"
     inkscape:pageopacity="0.0"
     inkscape:pageshadow="2"
     inkscape:zoom="2.8"
     inkscape:cx="106.64061"
     inkscape:cy="162.4283"
     inkscape:document-units="mm"
     inkscape:current-layer="layer1"
     inkscape:document-rotation="0"
     showgrid="false"
     inkscape:window-width="1920"
     inkscape:window-height="1013"
     inkscape:window-x="-9"
     inkscape:window-y="-9"
     inkscape:window-maximized="1" />
  <metadata
     id="metadata5">
    <rdf:RDF>
      <cc:Work
         rdf:about="">
        <dc:format>image/svg+xml</dc:format>
        <dc:type
           rdf:resource="http://purl.org/dc/dcmitype/StillImage" />
        <dc:title />
      </cc:Work>
    </rdf:RDF>
  </metadata>
  <g
     inkscape:label="Layer 1"
     inkscape:groupmode="layer"
     id="layer1">
    <g
       id="g28"
       transform="translate(-118.29167,-173.03198)">
      <path
         style="fill:#d4e4bb;stroke-width:0.264583"
         d="m 142.53482,214.6767 c -9.27598,-0.46145 -14.86389,-2.204 -18.78097,-5.8567 -3.22965,-3.01167 -4.38068,-5.92577 -4.45793,-11.28632 -0.0637,-4.4204 0.57022,-5.4951 3.11615,-5.28287 l 0.98824,0.0824 0.64323,-2.24896 c 1.38516,-4.84306 3.92104,-8.50064 6.90628,-9.96119 1.93236,-0.94541 5.07533,-1.15931 7.37584,-0.50198 1.95567,0.5588 4.69345,2.15697 6.89623,4.02564 l 1.69185,1.43525 0.71627,-0.8723 c 2.83411,-3.45144 6.71807,-6.83256 9.40927,-8.19108 5.22467,-2.6374 12.44717,-2.64987 17.85707,-0.0308 4.5107,2.18371 8.61508,7.80327 10.75128,14.72024 0.13521,0.43781 0.26528,0.38891 1.19171,-0.44807 1.43246,-1.29414 2.59276,-1.47575 4.18697,-0.65534 1.77275,0.91229 2.69013,2.48979 2.99985,5.15847 0.42716,3.68057 -0.35202,7.42313 -2.01335,9.67054 -2.40734,3.25659 -7.53118,6.01063 -14.36458,7.7209 -6.17334,1.54507 -11.55714,2.20431 -20.69362,2.53392 -7.70001,0.27779 -8.61579,0.27705 -14.41979,-0.0117 z"
         id="path44"
         sodipodi:nodetypes="sssscsssscssssssssssss" />
      <path
         style="fill:#c7d6ae;stroke-width:0.264583"
         d="m 143.92692,214.72055 c 0.1819,-0.0734 0.47956,-0.0734 0.66146,0 0.1819,0.0734 0.0331,0.13345 -0.33073,0.13345 -0.3638,0 -0.51263,-0.0601 -0.33073,-0.13345 z m 10.45104,-0.007 c 0.25467,-0.0666 0.67138,-0.0666 0.92605,0 0.25466,0.0666 0.0463,0.121 -0.46303,0.121 -0.50932,0 -0.71768,-0.0545 -0.46302,-0.121 z m -1.05793,-4.0695 c -4.80476,-0.46458 -9.51327,-1.8013 -13.95717,-3.96235 -2.61733,-1.27279 -5.84907,-3.74738 -5.54227,-4.24379 0.2605,-0.4215 2.21209,-0.26542 6.85453,0.54819 6.76872,1.18627 10.8779,1.5911 16.15024,1.5911 5.27233,0 9.38151,-0.40483 16.15024,-1.5911 4.64243,-0.81361 6.59402,-0.96969 6.85452,-0.54819 0.3065,0.49592 -2.92514,2.97111 -5.54226,4.24495 -4.59288,2.23549 -9.0546,3.47168 -14.33878,3.97277 -3.13415,0.2972 -3.44134,0.29667 -6.62905,-0.0116 z M 137.21555,196.2582 c -0.25208,-0.65691 0.12694,-2.59448 0.68799,-3.51705 0.71023,-1.16789 1.96205,-1.76305 3.70828,-1.76305 1.74622,0 2.99804,0.59516 3.70828,1.76305 0.56105,0.92257 0.94007,2.86014 0.68799,3.51705 -0.13892,0.36203 -0.27184,0.33553 -0.97885,-0.19519 -1.74304,-1.30842 -2.25195,-1.53736 -3.41742,-1.53736 -1.16547,0 -1.67438,0.22894 -3.41742,1.53736 -0.70701,0.53072 -0.83993,0.55722 -0.97885,0.19519 z m 26.45833,0 c -0.25208,-0.65691 0.12694,-2.59448 0.68799,-3.51705 0.71023,-1.16789 1.96206,-1.76305 3.70828,-1.76305 1.74622,0 2.99804,0.59516 3.70828,1.76305 0.56105,0.92257 0.94007,2.86014 0.68799,3.51705 -0.13892,0.36203 -0.27184,0.33553 -0.97885,-0.19519 -1.74304,-1.30842 -2.25195,-1.53736 -3.41742,-1.53736 -1.16547,0 -1.67439,0.22894 -3.41742,1.53736 -0.70701,0.53072 -0.83993,0.55722 -0.97885,0.19519 z M 134.7988,178.99464 c 0.25466,-0.0665 0.67138,-0.0665 0.92604,0 0.25466,0.0666 0.0463,0.121 -0.46302,0.121 -0.50932,0 -0.71768,-0.0545 -0.46302,-0.121 z"
         id="path40" />
    </g>
  </g>
</svg>
