<?xml version="1.0" encoding="UTF-8" standalone="no"?>
<svg
   xmlns:dc="http://purl.org/dc/elements/1.1/"
   xmlns:cc="http://creativecommons.org/ns#"
   xmlns:rdf="http://www.w3.org/1999/02/22-rdf-syntax-ns#"
   xmlns:svg="http://www.w3.org/2000/svg"
   xmlns="http://www.w3.org/2000/svg"
   xmlns:sodipodi="http://sodipodi.sourceforge.net/DTD/sodipodi-0.dtd"
   xmlns:inkscape="http://www.inkscape.org/namespaces/inkscape"
   width="210mm"
   height="297mm"
   viewBox="0 0 210 297"
   version="1.1"
   id="svg8"
   inkscape:version="1.0.2 (e86c870879, 2021-01-15)"
   sodipodi:docname="cloud_1.svg"
   inkscape:export-filename="D:\Projects\React-Native\TicTacToe\assets\background\cloud_1_512x289.png"
   inkscape:export-xdpi="130.88257"
   inkscape:export-ydpi="130.88257">
  <defs
     id="defs2">
    <inkscape:path-effect
       effect="bspline"
       id="path-effect58"
       is_visible="true"
       lpeversion="1"
       weight="33.333333"
       steps="2"
       helper_size="0"
       apply_no_weight="true"
       apply_with_weight="true"
       only_selected="false" />
    <inkscape:path-effect
       effect="bspline"
       id="path-effect54"
       is_visible="true"
       lpeversion="1"
       weight="33.333333"
       steps="2"
       helper_size="0"
       apply_no_weight="true"
       apply_with_weight="true"
       only_selected="false" />
    <inkscape:path-effect
       effect="bspline"
       id="path-effect32"
       is_visible="true"
       lpeversion="1"
       weight="33.333333"
       steps="2"
       helper_size="0"
       apply_no_weight="true"
       apply_with_weight="true"
       only_selected="false" />
    <inkscape:path-effect
       effect="bspline"
       id="path-effect26"
       is_visible="true"
       lpeversion="1"
       weight="33.333333"
       steps="2"
       helper_size="0"
       apply_no_weight="true"
       apply_with_weight="true"
       only_selected="false" />
  </defs>
  <sodipodi:namedview
     id="base"
     pagecolor="#ffffff"
     bordercolor="#666666"
     borderopacity="1.0"
     inkscape:pageopacity="0.0"
     inkscape:pageshadow="2"
     inkscape:zoom="0.98994949"
     inkscape:cx="442.71263"
     inkscape:cy="262.36066"
     inkscape:document-units="mm"
     inkscape:current-layer="layer1"
     inkscape:document-rotation="0"
     showgrid="false"
     inkscape:window-width="1920"
     inkscape:window-height="1013"
     inkscape:window-x="-9"
     inkscape:window-y="-9"
     inkscape:window-maximized="1" />
  <metadata
     id="metadata5">
    <rdf:RDF>
      <cc:Work
         rdf:about="">
        <dc:format>image/svg+xml</dc:format>
        <dc:type
           rdf:resource="http://purl.org/dc/dcmitype/StillImage" />
        <dc:title />
      </cc:Work>
    </rdf:RDF>
  </metadata>
  <g
     inkscape:label="Layer 1"
     inkscape:groupmode="layer"
     id="layer1">
    <g
       id="g82"
       transform="matrix(0.99788647,0,0,0.99555241,-10.002907,-69.505069)">
      <path
         style="fill:#d4e4bb;stroke-width:0.264583"
         d="m 41.545584,122.82262 c -9.180265,-0.3863 -15.677881,-1.74702 -20.362924,-4.26436 -5.233936,-2.81228 -8.618815,-7.05764 -9.694996,-12.15959 -0.248842,-1.17972 -0.429235,-3.4862 -0.453307,-5.79595 -0.03487,-3.345838 0.02717,-3.971536 0.485101,-4.892703 0.696611,-1.401281 1.481686,-1.780615 3.30321,-1.596051 l 1.455209,0.147447 0.739614,-2.716325 c 0.406787,-1.49398 1.209341,-3.711671 1.783453,-4.928203 2.826188,-5.988645 6.533233,-8.893958 11.764432,-9.220109 4.429956,-0.276196 8.569526,1.503097 13.778894,5.922522 l 1.774793,1.505664 1.727174,-1.96685 c 4.787016,-5.451304 8.899059,-8.726915 13.025916,-10.376312 6.573699,-2.627337 15.832097,-2.090578 21.83391,1.265828 4.878787,2.728373 10.001533,9.806427 12.30549,17.002385 l 0.615133,1.921251 1.071427,-1.045985 c 1.725539,-1.684564 3.315967,-2.018035 5.304757,-1.112269 1.22113,0.556141 2.92734,2.340628 3.46242,3.621251 1.08081,2.586744 0.99868,8.793229 -0.16122,12.183399 -2.79805,8.17818 -15.248805,13.77307 -35.259308,15.84417 -3.84225,0.39767 -17.856893,0.96003 -22.016886,0.88346 -1.164167,-0.0214 -4.081198,-0.12163 -6.482292,-0.22267 z"
         id="path98"
         sodipodi:nodetypes="sssssscsssscsssscsssssss" />
      <path
         style="fill:#c7d6ae;stroke-width:0.264583"
         d="m 43.042308,122.8179 c 0.181901,-0.0734 0.479558,-0.0734 0.661459,0 0.181901,0.0734 0.03307,0.13345 -0.33073,0.13345 -0.363802,0 -0.51263,-0.0601 -0.330729,-0.13345 z m 12.043577,-0.008 c 0.257431,-0.0671 0.614619,-0.0627 0.79375,0.01 0.17913,0.0725 -0.03149,0.12736 -0.468056,0.12197 -0.436563,-0.005 -0.583126,-0.0647 -0.325694,-0.13177 z m -1.592133,-9.09561 c -4.804767,-0.46459 -9.513268,-1.80131 -13.957173,-3.96236 -2.617327,-1.2728 -5.849067,-3.74739 -5.542269,-4.24379 0.260503,-0.42151 2.212094,-0.26543 6.854528,0.54819 6.768725,1.18626 10.877905,1.59109 16.150241,1.59109 5.272336,0 9.381516,-0.40483 16.15024,-1.59109 4.642435,-0.81362 6.594025,-0.9697 6.854528,-0.5482 0.306499,0.49592 -2.925148,2.97111 -5.542269,4.24495 -4.592881,2.23549 -9.054597,3.47168 -14.338778,3.97277 -3.134149,0.2972 -3.441338,0.29667 -6.629048,-0.0116 z M 66.55168,101.02255 c -2.796231,-0.83677 -3.589134,-4.603399 -1.37777,-6.545003 1.572053,-1.380281 3.721793,-1.330528 5.237075,0.121206 2.091409,2.003696 1.158221,5.632027 -1.656117,6.439177 -1.036577,0.29728 -1.161256,0.29641 -2.203188,-0.0154 z M 37.389266,99.328464 c -0.252079,-0.656907 0.126939,-2.594475 0.687991,-3.517048 0.710237,-1.167891 1.962057,-1.763053 3.708281,-1.763053 1.746223,0 2.998043,0.595162 3.70828,1.763053 0.561052,0.922573 0.94007,2.860141 0.687991,3.517048 -0.138925,0.362035 -0.271843,0.335532 -0.97885,-0.195188 -1.743038,-1.30842 -2.251953,-1.537361 -3.417421,-1.537361 -1.165469,0 -1.674384,0.228941 -3.417422,1.537361 -0.707007,0.53072 -0.839925,0.557223 -0.97885,0.195188 z"
         id="path94" />
    </g>
    <g
       id="g64"
       transform="translate(112.06994,-51.404762)" />
    <path
       style="fill:#000000;stroke-width:0.264583"
       id="path60"
       d="" />
    <rect
       style="opacity:0.609836;fill:#000000;fill-opacity:0;stroke-width:0.385607"
       id="rect16"
       width="97.706848"
       height="16.441963"
       x="0.37797621"
       y="0.56696427"
       ry="1.7372515" />
    <rect
       style="opacity:0.609836;fill:#000000;fill-opacity:0;stroke-width:0.416847"
       id="rect18"
       width="97"
       height="55.6064"
       x="0"
       y="0"
       ry="1.7210622" />
    <rect
       style="opacity:0.609836;fill:#ffff00;fill-opacity:0;stroke-width:0.356959"
       id="rect20"
       width="99.36235"
       height="55.6064"
       x="0"
       y="0"
       ry="1.7372515" />
    <rect
       style="opacity:0.609836;fill:none;fill-opacity:0;stroke-width:0.35269"
       id="rect22"
       width="99"
       height="56"
       x="0"
       y="0" />
  </g>
</svg>
