<?xml version="1.0" encoding="UTF-8" standalone="no"?>
<svg
   xmlns:dc="http://purl.org/dc/elements/1.1/"
   xmlns:cc="http://creativecommons.org/ns#"
   xmlns:rdf="http://www.w3.org/1999/02/22-rdf-syntax-ns#"
   xmlns:svg="http://www.w3.org/2000/svg"
   xmlns="http://www.w3.org/2000/svg"
   xmlns:sodipodi="http://sodipodi.sourceforge.net/DTD/sodipodi-0.dtd"
   xmlns:inkscape="http://www.inkscape.org/namespaces/inkscape"
   width="210mm"
   height="297mm"
   viewBox="0 0 210 297"
   version="1.1"
   id="svg8"
   inkscape:version="1.0.2 (e86c870879, 2021-01-15)"
   sodipodi:docname="cloud_3.svg"
   inkscape:export-filename="D:\Projects\React-Native\TicTacToe\assets\background\cloud_3_128x69.png"
   inkscape:export-xdpi="34.140411"
   inkscape:export-ydpi="34.140411">
  <defs
     id="defs2" />
  <sodipodi:namedview
     id="base"
     pagecolor="#ffffff"
     bordercolor="#666666"
     borderopacity="1.0"
     inkscape:pageopacity="0.0"
     inkscape:pageshadow="2"
     inkscape:zoom="1.979899"
     inkscape:cx="315.68824"
     inkscape:cy="180.36545"
     inkscape:document-units="mm"
     inkscape:current-layer="g24"
     inkscape:document-rotation="0"
     showgrid="false"
     inkscape:window-width="1920"
     inkscape:window-height="1013"
     inkscape:window-x="-9"
     inkscape:window-y="-9"
     inkscape:window-maximized="1" />
  <metadata
     id="metadata5">
    <rdf:RDF>
      <cc:Work
         rdf:about="">
        <dc:format>image/svg+xml</dc:format>
        <dc:type
           rdf:resource="http://purl.org/dc/dcmitype/StillImage" />
        <dc:title />
      </cc:Work>
    </rdf:RDF>
  </metadata>
  <g
     inkscape:label="Layer 1"
     inkscape:groupmode="layer"
     id="layer1">
    <g
       id="g24"
       transform="translate(53.4067,145.35123)">
      <path
         style="fill:#d4e4bb;stroke-width:0.264583"
         d="m -18.834417,-92.937085 c -6.486525,-0.442886 -12.686735,-1.83296 -17.5744,-3.940149 -8.779728,-3.785146 -14.770145,-10.215566 -15.857521,-17.022266 -0.745555,-4.66699 1.484537,-7.10367 6.557698,-7.16518 1.262187,-0.0153 2.713842,0.0573 3.2259,0.16146 l 0.931014,0.18928 0.625809,-2.26805 c 1.461448,-5.29656 4.505793,-9.75858 7.726153,-11.32402 4.532987,-2.20352 10.681011,-0.33155 17.270234,5.25849 l 1.721786,1.46069 0.833575,-1.21156 c 1.591631,-2.31335 4.9340272,-6.34733 6.9035962,-8.33202 3.343482,-3.36916 6.41248401,-5.47911 9.639676,-6.62733 2.211398,-0.7868 5.53684,-0.79192 7.5522898,-0.0116 6.118225,2.36872 10.9532,9.42113 14.665169,21.39097 0.06443,0.20775 0.575223,8.2e-4 1.44825,-0.58667 1.644126,-1.10642 2.815677,-1.45266 4.893101,-1.44613 3.169706,0.01 5.933125,1.11868 8.338211,3.34536 3.872762,3.5855 3.655616,8.21554 -0.58521,12.478 -3.732729,3.75177 -9.670373,6.83938 -18.898246,9.827202 -13.4657278,4.359973 -28.4434278,6.572803 -39.417085,5.823545 z"
         id="path40"
         sodipodi:nodetypes="csssccssscssscsccssscc" />
      <path
         style="fill:#c7d6ae;stroke-width:0.264583"
         d="m -18.459943,-93.848823 c 0.190995,-0.07643 0.419198,-0.06703 0.507119,0.02087 0.08792,0.08792 -0.06835,0.150453 -0.347265,0.138965 -0.308227,-0.0127 -0.37092,-0.07539 -0.159854,-0.159851 z m 6.614584,0 c 0.190994,-0.07643 0.419198,-0.06703 0.507119,0.02087 0.08792,0.08792 -0.06835,0.150453 -0.347266,0.138965 -0.308226,-0.0127 -0.370919,-0.07539 -0.159853,-0.159851 z m 4.8786566,-8.569067 c -4.8047666,-0.46459 -9.5132676,-1.80131 -13.9571726,-3.96236 -2.617327,-1.27279 -5.849067,-3.74738 -5.542269,-4.24379 0.260503,-0.4215 2.212094,-0.26542 6.854528,0.54819 6.768725,1.18627 10.8779046,1.5911 16.1502406,1.5911 5.272336,0 9.381516,-0.40483 16.1502414,-1.5911 4.642434,-0.81361 6.594025,-0.96969 6.854528,-0.54819 0.306499,0.49592 -2.925148,2.97111 -5.542269,4.24494 -4.5928815,2.2355 -9.0545974,3.47168 -14.33877938,3.97278 -3.13414802,0.2972 -3.44133702,0.29667 -6.62904802,-0.0116 z m -16.1044856,-14.38569 c -0.252079,-0.65691 0.126939,-2.59448 0.68799,-3.51705 0.710237,-1.16789 1.962058,-1.76305 3.708281,-1.76305 1.746224,0 2.998044,0.59516 3.708281,1.76305 0.561052,0.92257 0.94007,2.86014 0.687991,3.51705 -0.138925,0.36203 -0.271843,0.33553 -0.97885,-0.19519 -1.743038,-1.30842 -2.251953,-1.53736 -3.417422,-1.53736 -1.165468,0 -1.674384,0.22894 -3.417422,1.53736 -0.707006,0.53072 -0.839925,0.55722 -0.978849,0.19519 z m 26.4583326,0 c -0.252079,-0.65691 0.126939,-2.59448 0.687991,-3.51705 0.710237,-1.16789 1.962057,-1.76305 3.708281,-1.76305 1.7462229,0 2.9980444,0.59516 3.7082814,1.76305 0.561051,0.92257 0.940069,2.86014 0.68799,3.51705 -0.138924,0.36203 -0.271843,0.33553 -0.97885,-0.19519 -1.7430375,-1.30842 -2.2519535,-1.53736 -3.4174214,-1.53736 -1.165469,0 -1.674384,0.22894 -3.417422,1.53736 -0.707007,0.53072 -0.839925,0.55722 -0.97885,0.19519 z"
         id="path36" />
    </g>
  </g>
</svg>
